<svg id="Capa_1" data-name="Capa 1" xmlns="http://www.w3.org/2000/svg" viewBox="0 0 30 10.06"><defs><style>.cls-1{fill:#fff;}</style></defs><title>arrowBack</title><path class="cls-1" d="M5.42,9.87a.6.6,0,0,1-.46.19.63.63,0,0,1-.46-.19L.21,5.48a.22.22,0,0,1-.08-.09l0,0a.19.19,0,0,0,0-.09s0,0,0,0a.26.26,0,0,1,0-.08A.43.43,0,0,1,0,4.9a.11.11,0,0,1,0-.08s0,0,0,0l.05-.1a0,0,0,0,1,0,0,.22.22,0,0,1,.08-.09L4.5.19a.66.66,0,0,1,.92,0,.68.68,0,0,1,0,1L2.24,4.38H23.55a.67.67,0,0,1,0,1.33H2.24L5.42,9A.63.63,0,0,1,5.42,9.87Z"/></svg>