<svg id="Capa_1" data-name="Capa 1" xmlns="http://www.w3.org/2000/svg" xmlns:xlink="http://www.w3.org/1999/xlink" viewBox="0 0 320 478.16"><defs><style>.cls-1{fill:none;}.cls-2{clip-path:url(#clip-path);}.cls-3{fill:#3b2059;}</style><clipPath id="clip-path"><rect class="cls-1" x="-1.16" y="-2.05" width="325" height="480.22"/></clipPath></defs><title>bg</title><g class="cls-2"><polygon class="cls-3" points="-2.55 352.62 64.99 213.34 155.49 389.65 106.59 389.65 65.72 312.69 -2.55 447.73 -2.55 352.62"/><polygon class="cls-3" points="129.21 432.49 175.92 432.49 200.1 478.16 151.11 478.16 129.21 432.49"/><path class="cls-3" d="M376.86,151.7C283.45,151.7,207.75,227,207.75,320s75.71,168.24,169.12,168.24S546,412.87,546,320,470.26,151.7,376.86,151.7Zm9.6,287c-65.91,0-119.34-53.12-119.36-118.68s53.41-118.72,119.31-118.73,119.34,53.12,119.35,118.68v0c0,65.55-53.42,118.69-119.32,118.7Z"/><polygon class="cls-3" points="35.68 -2.43 35.68 13.26 227.69 185.4 227.69 -2.43 188.35 -2.43 188.35 91.49 81.77 -2.43 35.68 -2.43"/></g></svg>