<svg width="151" height="217" viewBox="0 0 151 217" fill="none" xmlns="http://www.w3.org/2000/svg">
<path d="M15.6494 191H17.9214V187.176H20.6414C22.9454 187.176 24.2254 185.624 24.2254 183.768C24.2254 181.896 22.9614 180.328 20.6414 180.328H15.6494V191ZM21.9054 183.752C21.9054 184.648 21.2334 185.224 20.3374 185.224H17.9214V182.28H20.3374C21.2334 182.28 21.9054 182.872 21.9054 183.752ZM25.5858 191H27.6178V185.896C27.9538 185.4 28.8498 185.016 29.5218 185.016C29.7458 185.016 29.9378 185.048 30.0818 185.08V183.096C29.1218 183.096 28.1618 183.64 27.6178 184.328V183.272H25.5858V191ZM34.9354 191.192C37.4954 191.192 39.0314 189.336 39.0314 187.128C39.0314 184.936 37.4954 183.08 34.9354 183.08C32.3914 183.08 30.8554 184.936 30.8554 187.128C30.8554 189.336 32.3914 191.192 34.9354 191.192ZM34.9354 189.384C33.6714 189.384 32.9674 188.344 32.9674 187.128C32.9674 185.928 33.6714 184.888 34.9354 184.888C36.1994 184.888 36.9194 185.928 36.9194 187.128C36.9194 188.344 36.1994 189.384 34.9354 189.384ZM45.8509 191H47.8989V180.328H45.8509V184.264C45.2429 183.48 44.3789 183.08 43.4669 183.08C41.4989 183.08 40.0429 184.616 40.0429 187.144C40.0429 189.72 41.5149 191.192 43.4669 191.192C44.3949 191.192 45.2429 190.776 45.8509 190.008V191ZM45.8509 188.504C45.5149 189.016 44.7789 189.384 44.0909 189.384C42.9389 189.384 42.1389 188.472 42.1389 187.144C42.1389 185.8 42.9389 184.888 44.0909 184.888C44.7789 184.888 45.5149 185.256 45.8509 185.768V188.504ZM55.1299 191H57.1619V183.272H55.1299V188.504C54.7779 188.952 54.1539 189.384 53.3699 189.384C52.5059 189.384 51.9459 189.032 51.9459 187.96V183.272H49.9139V188.76C49.9139 190.264 50.7139 191.192 52.4099 191.192C53.6739 191.192 54.6019 190.616 55.1299 190.024V191ZM58.6835 187.128C58.6835 189.512 60.3955 191.192 62.7795 191.192C64.3635 191.192 65.3235 190.504 65.8355 189.784L64.5075 188.552C64.1395 189.064 63.5795 189.384 62.8755 189.384C61.6435 189.384 60.7795 188.472 60.7795 187.128C60.7795 185.784 61.6435 184.888 62.8755 184.888C63.5795 184.888 64.1395 185.176 64.5075 185.72L65.8355 184.472C65.3235 183.768 64.3635 183.08 62.7795 183.08C60.3955 183.08 58.6835 184.76 58.6835 187.128ZM69.7559 191.192C70.6039 191.192 71.1479 190.968 71.4519 190.696L71.0199 189.16C70.9079 189.272 70.6199 189.384 70.3159 189.384C69.8679 189.384 69.6119 189.016 69.6119 188.536V185.048H71.1799V183.272H69.6119V181.16H67.5639V183.272H66.2839V185.048H67.5639V189.08C67.5639 190.456 68.3319 191.192 69.7559 191.192ZM76.1541 191.192C78.7141 191.192 80.2501 189.336 80.2501 187.128C80.2501 184.936 78.7141 183.08 76.1541 183.08C73.6101 183.08 72.0741 184.936 72.0741 187.128C72.0741 189.336 73.6101 191.192 76.1541 191.192ZM76.1541 189.384C74.8901 189.384 74.1861 188.344 74.1861 187.128C74.1861 185.928 74.8901 184.888 76.1541 184.888C77.4181 184.888 78.1381 185.928 78.1381 187.128C78.1381 188.344 77.4181 189.384 76.1541 189.384ZM85.5954 191H93.6274V189H89.1794C92.0434 186.984 93.5474 185.4 93.5474 183.576C93.5474 181.448 91.7394 180.168 89.4674 180.168C87.9794 180.168 86.3954 180.712 85.3554 181.912L86.6514 183.416C87.3714 182.664 88.2994 182.184 89.4994 182.184C90.3954 182.184 91.2434 182.648 91.2434 183.576C91.2434 184.888 89.9634 185.992 85.5954 189.208V191Z" fill="#263238"/>
<path d="M23.8734 208.768C23.8734 206.592 22.0334 205.952 20.3694 205.52V203.28C21.0894 203.456 21.7934 203.792 22.3534 204.32L23.6174 202.656C22.7534 201.872 21.6654 201.36 20.3694 201.232V199.712H18.8494V201.2C16.7054 201.408 15.4094 202.784 15.4094 204.416C15.4094 206.576 17.2014 207.216 18.8494 207.616V210.128C17.7774 209.936 16.9134 209.392 16.3054 208.768L15.0734 210.496C15.9534 211.376 17.1694 212.016 18.8494 212.16V213.6H20.3694V212.144C22.7214 211.904 23.8734 210.528 23.8734 208.768ZM17.7454 204.224C17.7454 203.648 18.1774 203.232 18.9934 203.152V205.184C18.2574 204.992 17.7454 204.72 17.7454 204.224ZM20.2254 210.176V207.936C20.9934 208.16 21.5534 208.432 21.5534 209.024C21.5534 209.552 21.1374 210.048 20.2254 210.176ZM27.6695 212H29.9415V201.328H27.9575L24.5975 204.704L25.8935 206.064L27.6695 204.256V212ZM31.3196 210.48C32.1036 211.44 33.5596 212.192 35.5276 212.192C38.0876 212.192 39.7356 210.896 39.7356 209.056C39.7356 207.456 38.3276 206.608 37.2396 206.496C38.4236 206.288 39.5756 205.408 39.5756 204.064C39.5756 202.288 38.0396 201.168 35.5436 201.168C33.6716 201.168 32.3276 201.888 31.4636 202.864L32.5836 204.272C33.3356 203.552 34.2796 203.152 35.3036 203.152C36.4236 203.152 37.2876 203.584 37.2876 204.432C37.2876 205.232 36.5036 205.616 35.3196 205.616C34.9196 205.616 34.1836 205.616 33.9916 205.6V207.584C34.1516 207.568 34.8716 207.568 35.3196 207.568C36.8076 207.568 37.4636 207.968 37.4636 208.832C37.4636 209.648 36.7436 210.208 35.4476 210.208C34.4076 210.208 33.2396 209.76 32.5036 208.992L31.3196 210.48ZM40.9343 206.672C40.9343 209.424 42.2943 212.192 45.3503 212.192C48.3903 212.192 49.7663 209.424 49.7663 206.672C49.7663 203.92 48.3903 201.168 45.3503 201.168C42.2943 201.168 40.9343 203.92 40.9343 206.672ZM47.4463 206.672C47.4463 208.64 46.8703 210.176 45.3503 210.176C43.8143 210.176 43.2383 208.64 43.2383 206.672C43.2383 204.704 43.8143 203.184 45.3503 203.184C46.8703 203.184 47.4463 204.704 47.4463 206.672Z" fill="#A8A8A8"/>
<rect x="0.242432" width="150.685" height="168" fill="#ECEFF1"/>
</svg>
