<svg width="151" height="217" viewBox="0 0 151 217" fill="none" xmlns="http://www.w3.org/2000/svg">
<path d="M15.6855 191H17.9575V187.176H20.6775C22.9815 187.176 24.2615 185.624 24.2615 183.768C24.2615 181.896 22.9975 180.328 20.6775 180.328H15.6855V191ZM21.9415 183.752C21.9415 184.648 21.2695 185.224 20.3735 185.224H17.9575V182.28H20.3735C21.2695 182.28 21.9415 182.872 21.9415 183.752ZM25.6219 191H27.6539V185.896C27.9899 185.4 28.8859 185.016 29.5579 185.016C29.7819 185.016 29.9739 185.048 30.1179 185.08V183.096C29.1579 183.096 28.1979 183.64 27.6539 184.328V183.272H25.6219V191ZM34.9715 191.192C37.5315 191.192 39.0675 189.336 39.0675 187.128C39.0675 184.936 37.5315 183.08 34.9715 183.08C32.4275 183.08 30.8915 184.936 30.8915 187.128C30.8915 189.336 32.4275 191.192 34.9715 191.192ZM34.9715 189.384C33.7075 189.384 33.0035 188.344 33.0035 187.128C33.0035 185.928 33.7075 184.888 34.9715 184.888C36.2355 184.888 36.9555 185.928 36.9555 187.128C36.9555 188.344 36.2355 189.384 34.9715 189.384ZM45.887 191H47.935V180.328H45.887V184.264C45.279 183.48 44.415 183.08 43.503 183.08C41.535 183.08 40.079 184.616 40.079 187.144C40.079 189.72 41.551 191.192 43.503 191.192C44.431 191.192 45.279 190.776 45.887 190.008V191ZM45.887 188.504C45.551 189.016 44.815 189.384 44.127 189.384C42.975 189.384 42.175 188.472 42.175 187.144C42.175 185.8 42.975 184.888 44.127 184.888C44.815 184.888 45.551 185.256 45.887 185.768V188.504ZM55.166 191H57.198V183.272H55.166V188.504C54.814 188.952 54.19 189.384 53.406 189.384C52.542 189.384 51.982 189.032 51.982 187.96V183.272H49.95V188.76C49.95 190.264 50.75 191.192 52.446 191.192C53.71 191.192 54.638 190.616 55.166 190.024V191ZM58.7197 187.128C58.7197 189.512 60.4317 191.192 62.8157 191.192C64.3997 191.192 65.3597 190.504 65.8717 189.784L64.5437 188.552C64.1757 189.064 63.6157 189.384 62.9117 189.384C61.6797 189.384 60.8157 188.472 60.8157 187.128C60.8157 185.784 61.6797 184.888 62.9117 184.888C63.6157 184.888 64.1757 185.176 64.5437 185.72L65.8717 184.472C65.3597 183.768 64.3997 183.08 62.8157 183.08C60.4317 183.08 58.7197 184.76 58.7197 187.128ZM69.792 191.192C70.64 191.192 71.184 190.968 71.488 190.696L71.056 189.16C70.944 189.272 70.656 189.384 70.352 189.384C69.904 189.384 69.648 189.016 69.648 188.536V185.048H71.216V183.272H69.648V181.16H67.6V183.272H66.32V185.048H67.6V189.08C67.6 190.456 68.368 191.192 69.792 191.192ZM76.1903 191.192C78.7503 191.192 80.2863 189.336 80.2863 187.128C80.2863 184.936 78.7503 183.08 76.1903 183.08C73.6463 183.08 72.1103 184.936 72.1103 187.128C72.1103 189.336 73.6463 191.192 76.1903 191.192ZM76.1903 189.384C74.9263 189.384 74.2223 188.344 74.2223 187.128C74.2223 185.928 74.9263 184.888 76.1903 184.888C77.4543 184.888 78.1743 185.928 78.1743 187.128C78.1743 188.344 77.4543 189.384 76.1903 189.384ZM88.1275 191H90.3995V180.328H88.4155L85.0555 183.704L86.3515 185.064L88.1275 183.256V191Z" fill="#263238"/>
<path d="M23.9095 208.768C23.9095 206.592 22.0695 205.952 20.4055 205.52V203.28C21.1255 203.456 21.8295 203.792 22.3895 204.32L23.6535 202.656C22.7895 201.872 21.7015 201.36 20.4055 201.232V199.712H18.8855V201.2C16.7415 201.408 15.4455 202.784 15.4455 204.416C15.4455 206.576 17.2375 207.216 18.8855 207.616V210.128C17.8135 209.936 16.9495 209.392 16.3415 208.768L15.1095 210.496C15.9895 211.376 17.2055 212.016 18.8855 212.16V213.6H20.4055V212.144C22.7575 211.904 23.9095 210.528 23.9095 208.768ZM17.7815 204.224C17.7815 203.648 18.2135 203.232 19.0295 203.152V205.184C18.2935 204.992 17.7815 204.72 17.7815 204.224ZM20.2615 210.176V207.936C21.0295 208.16 21.5895 208.432 21.5895 209.024C21.5895 209.552 21.1735 210.048 20.2615 210.176ZM27.7057 212H29.9777V201.328H27.9937L24.6337 204.704L25.9297 206.064L27.7057 204.256V212ZM31.3558 210.48C32.1398 211.44 33.5958 212.192 35.5638 212.192C38.1238 212.192 39.7718 210.896 39.7718 209.056C39.7718 207.456 38.3638 206.608 37.2758 206.496C38.4598 206.288 39.6118 205.408 39.6118 204.064C39.6118 202.288 38.0758 201.168 35.5798 201.168C33.7078 201.168 32.3638 201.888 31.4998 202.864L32.6198 204.272C33.3718 203.552 34.3158 203.152 35.3398 203.152C36.4598 203.152 37.3238 203.584 37.3238 204.432C37.3238 205.232 36.5398 205.616 35.3558 205.616C34.9558 205.616 34.2198 205.616 34.0278 205.6V207.584C34.1878 207.568 34.9078 207.568 35.3558 207.568C36.8438 207.568 37.4998 207.968 37.4998 208.832C37.4998 209.648 36.7798 210.208 35.4838 210.208C34.4438 210.208 33.2758 209.76 32.5398 208.992L31.3558 210.48ZM40.9704 206.672C40.9704 209.424 42.3304 212.192 45.3864 212.192C48.4264 212.192 49.8024 209.424 49.8024 206.672C49.8024 203.92 48.4264 201.168 45.3864 201.168C42.3304 201.168 40.9704 203.92 40.9704 206.672ZM47.4824 206.672C47.4824 208.64 46.9064 210.176 45.3864 210.176C43.8504 210.176 43.2744 208.64 43.2744 206.672C43.2744 204.704 43.8504 203.184 45.3864 203.184C46.9064 203.184 47.4824 204.704 47.4824 206.672Z" fill="#9D9D9D"/>
<rect x="0.278564" width="150.685" height="168" fill="#ECEFF1"/>
</svg>
